<svg width="100" height="120" viewBox="0 0 100 120" fill="none" xmlns="http://www.w3.org/2000/svg">
<path d="M37.8984 46.4691C31.5475 40.709 28.5936 36.1305 28.5936 30.9612C28.5936 23.2811 33.4675 17.6687 40.1138 17.6687C46.6124 17.6687 51.4863 23.4287 51.4863 30.3704C51.4863 36.869 48.3847 41.1521 37.8984 46.4691ZM56.6556 86.199C50.8955 97.2761 43.9539 101.855 35.5353 101.855C25.3443 101.855 18.1073 94.1745 18.1073 83.6882C18.1073 73.4973 24.3105 66.5556 33.6152 63.454L56.6556 86.199ZM86.3423 116.476L96.9763 105.695L74.9698 83.2451L92.8408 47.2076H75.5605L63.5973 71.2818L49.1232 57.1032C61.0865 51.3431 67.4373 42.4814 67.4373 30.8135C67.4373 15.4532 55.6217 3.04688 40.2615 3.04688C24.0151 3.04688 12.6426 15.7486 12.6426 30.9612C12.6426 38.4936 15.0057 44.5491 23.1289 52.6723C9.54099 58.7278 2.15625 70.3957 2.15625 83.8359C2.15625 102.298 17.0734 116.476 35.5353 116.476C48.0893 116.476 58.5756 110.421 67.2896 97.2761L86.3423 116.476Z" fill="white"/>
<path fill-rule="evenodd" clip-rule="evenodd" d="M86.3468 119.542L67.5875 100.637C58.839 112.78 48.2225 118.632 35.5351 118.632C15.9461 118.632 0 103.551 0 83.8358C0 70.4484 6.91462 58.7218 19.5261 52.0299C16.4794 48.7053 14.3228 45.6126 12.8827 42.5006C11.1209 38.6936 10.4863 34.9766 10.4863 30.9611C10.4863 14.6415 22.742 0.890625 40.2614 0.890625C56.8726 0.890625 69.5933 14.3234 69.5933 30.8134C69.5933 42.5363 63.6039 51.5739 52.757 57.6446L62.9866 67.6653L74.2242 45.0514H96.3166L77.5821 82.83L100 105.699L86.3468 119.542ZM74.9696 83.245L92.8407 47.2075H75.5604L63.5971 71.2817L49.1231 57.103C49.8172 56.7688 50.4925 56.4241 51.1487 56.0691C61.802 50.3051 67.4372 41.8042 67.4372 30.8134C67.4372 15.4531 55.6216 3.04675 40.2614 3.04675C24.0149 3.04675 12.6425 15.7485 12.6425 30.9611C12.6425 37.9767 14.6925 43.7112 21.5372 51.0284C22.0413 51.5673 22.5715 52.1149 23.1288 52.6722C22.4257 52.9855 21.7392 53.3139 21.0695 53.6568C8.7964 59.9399 2.15613 71.091 2.15613 83.8358C2.15613 102.298 17.0733 116.476 35.5351 116.476C47.4983 116.476 57.5838 110.977 66.0472 99.0851C66.4653 98.4977 66.8794 97.8947 67.2895 97.276L86.3421 116.476L96.9762 105.695L74.9696 83.245ZM38.2508 43.8568C32.821 38.7136 30.7496 34.9165 30.7496 30.9611C30.7496 24.173 34.9364 19.8247 40.1137 19.8247C45.1707 19.8247 49.33 24.3522 49.33 30.3703C49.33 33.2128 48.6737 35.3995 46.9564 37.4967C45.3166 39.4993 42.6177 41.5334 38.2508 43.8568ZM53.9912 86.5985C51.4282 91.1847 48.7013 94.3623 45.8312 96.4317C42.7125 98.6805 39.3195 99.6984 35.5351 99.6984C26.629 99.6984 20.2633 93.0798 20.2633 83.6881C20.2633 75.0369 25.1845 68.9775 33.0656 65.9412L53.9912 86.5985ZM33.6151 63.4539C24.3103 66.5555 18.1072 73.4971 18.1072 83.6881C18.1072 94.1744 25.3442 101.855 35.5351 101.855C43.9537 101.855 50.8954 97.276 56.6555 86.1989L33.6151 63.4539ZM28.5935 30.9611C28.5935 36.1304 31.5474 40.7089 37.8983 46.469C48.3846 41.152 51.4862 36.8688 51.4862 30.3703C51.4862 23.4286 46.6122 17.6685 40.1137 17.6685C33.4674 17.6685 28.5935 23.2809 28.5935 30.9611Z" fill="#050505"/>
</svg>
