<svg width="24" height="24" viewBox="0 0 24 24" fill="none" xmlns="http://www.w3.org/2000/svg">
<rect width="24" height="24" fill="white"/>
<path d="M20.9995 8.73692V8.5558C20.9995 7.61394 20.8964 6.70831 20.8277 5.80267C20.7933 5.51287 20.7933 5.22307 20.7589 4.93327C20.7246 4.53479 20.484 4.28121 20.1059 4.24499C18.3187 4.06386 16.4628 3.99141 14.4007 3.99141C14.4007 3.88273 14.4007 3.77406 14.4351 3.66538C14.5038 3.04955 14.6413 2.61485 14.8475 2.36127C15.0193 2.14392 15.0537 2.14392 15.2943 2.25259C15.5005 2.32504 15.5692 2.46995 15.638 2.79597C15.6723 2.90465 15.7067 3.01333 15.7411 3.122C15.8442 3.37558 16.0848 3.52048 16.3597 3.48425C16.6003 3.44803 16.7378 3.23068 16.7378 2.9771C16.7034 2.3975 16.4628 1.31074 15.7067 1.05716C15.0537 0.839807 14.3319 1.27451 13.9539 1.81789C13.5758 2.3975 13.3352 3.15823 13.3352 4.02763C11.4793 4.02763 9.52029 4.10008 7.1832 4.20876C7.1832 3.95518 7.25193 3.73783 7.2863 3.52048C7.52689 2.5424 7.76747 2.3975 7.83621 2.36127C8.00805 2.32504 8.21427 2.6873 8.31737 2.90465L8.35174 2.94087C8.48922 3.15823 8.7298 3.2669 8.97038 3.15823C9.1766 3.08578 9.34844 2.8322 9.2797 2.5424C9.10786 1.78167 8.66106 1.23829 8.14553 1.12961C7.62999 1.02093 7.14883 1.31074 6.7364 1.89034C6.2896 2.5424 6.04902 3.33935 6.04902 4.20876C4.743 4.28121 5.19883 4.38989 3.89281 4.46234C3.61786 4.49856 3.41165 4.64346 3.34291 4.89704C2.93048 6.30983 2.93048 7.90374 3.37728 9.93236C3.34291 10.1135 3.41165 10.3308 3.51475 10.4757C3.61786 10.6206 3.75534 10.6931 3.96155 10.6931H3.05892C2.92144 14.8952 3.02455 18.5178 3.36824 21.778C3.40261 22.1041 3.64319 22.3214 3.91814 22.3214C8.7298 22.249 13.8164 22.1403 18.9718 22.0678C19.1436 22.0678 19.3154 21.9954 19.4529 21.8505C19.556 21.7056 19.6248 21.5607 19.6248 21.3796C19.5904 20.329 19.556 19.2423 19.556 18.1555C19.5217 15.5835 19.4529 12.9391 19.178 10.4033C19.6591 10.4033 20.1747 10.3671 20.5184 10.1497C21.0339 9.82368 20.9995 9.24408 20.9995 8.73692ZM18.1125 18.1193C18.1813 18.9887 18.2156 19.8581 18.25 20.7275H17.6314C13.3009 20.8362 8.79854 20.9448 4.36494 21.126C3.98688 17.7932 3.8494 14.3518 3.95251 10.6569H4.60552C7.80184 10.6206 11.4449 10.5844 14.7444 10.4757C15.3286 10.4395 15.9129 10.4395 16.4972 10.4395C16.944 10.4395 17.4252 10.4033 17.8719 10.4033C17.8032 12.9753 17.9751 15.5835 18.1125 18.1193ZM7.25193 7.14301C7.52689 7.03433 7.69873 6.67208 7.56125 6.34605C7.42378 6.02003 7.32067 5.73022 7.25193 5.44042C9.52029 5.33174 11.5481 5.29552 13.4383 5.33174C13.5071 5.80267 13.6446 6.23738 13.8164 6.63586C13.9539 6.96188 14.2976 7.07056 14.5382 6.92566C14.7787 6.81698 14.8818 6.56341 14.7787 6.2736C14.6413 5.94758 14.5725 5.62155 14.5038 5.29552C16.2566 5.33174 17.8719 5.4042 19.4529 5.5491C19.5217 6.30983 19.556 7.10678 19.5904 7.90374C19.5904 7.97619 19.5904 8.12109 19.6248 8.22977C19.6591 8.4109 19.6591 8.62825 19.6591 8.80937C19.5904 8.80937 19.4873 8.80937 19.4186 8.8456C19.3154 8.88182 19.2123 8.88183 19.0749 8.88183C17.597 8.95428 16.1191 8.9905 14.6756 9.02672C14.0914 9.02672 13.5415 9.06295 12.9572 9.06295H12.3729C9.1766 9.17163 7.39845 9.2803 4.37398 9.31653C4.09903 7.86751 4.06466 6.70831 4.33961 5.62155C5.71437 5.5491 5.08669 5.47665 6.15213 5.44042C6.25523 5.91135 6.39271 6.38228 6.59892 6.85321C6.7364 7.17923 7.01135 7.28791 7.25193 7.14301Z" fill="black"/>
</svg>
