<svg width="24" height="24" viewBox="0 0 24 24" fill="none" xmlns="http://www.w3.org/2000/svg">
<path d="M24 0H0V24H24V0Z" fill="white"/>
<path d="M17.5596 20.5649C21.4762 18.2686 25.0836 9.77306 21.5793 5.54171C19.9817 3.63244 17.6369 2.96162 15.2406 2.65201C12.2774 2.26499 9.13379 2.3682 6.40248 3.60664C5.99021 3.78725 5.99021 4.17426 6.19635 4.45807C4.31535 6.16093 2.61473 7.9928 1.60981 10.3665C0.656432 12.6627 0.759497 15.5782 2.35705 17.5649C6.22211 22.2607 13.0762 23.1708 17.5596 20.5649ZM3.13007 10.0827C4.16075 7.88959 6.11905 6.18673 7.92274 4.63868C8.05158 4.53547 8.10311 4.43227 8.12888 4.30326C10.0614 3.70984 12.097 3.70984 14.1326 3.83885C16.297 3.96785 18.5645 4.40647 20.1879 5.92873C21.8112 7.42518 21.8627 9.85047 21.2443 11.8371C20.1879 15.9521 18.513 18.7589 16.5547 19.9199C12.7154 22.1646 6.94359 20.6868 3.51657 16.9715C1.79018 15.0622 2.15092 12.1983 3.13007 10.0827Z" fill="black"/>
<path d="M16.3141 7.01953C15.1539 8.84404 13.8836 11.0816 12.5003 12.7495C11.8276 13.5498 11.1149 13.8406 10.3654 14.6046C10.3349 14.6244 8.32338 12.9932 8.16868 12.7495C7.75457 12.0505 6.5089 12.4692 6.92301 13.1683C7.57339 14.2946 8.39318 15.5693 9.49752 16.4236C10.4324 17.1297 11.0657 16.7632 11.7237 16.0584C13.976 13.7426 15.7529 12.1943 17.4286 9.52077C17.8341 8.85034 16.5941 7.34157 16.3141 7.01953Z" fill="black"/>
</svg>
