<svg width="24" height="24" viewBox="0 0 24 24" fill="none" xmlns="http://www.w3.org/2000/svg">
<rect width="24" height="24" fill="white"/>
<path d="M12.976 4.59375C12.8011 4.61824 12.6202 4.65866 12.427 4.72357L12.976 4.59375Z" fill="black" stroke="black" stroke-width="0.4"/>
<path d="M21.139 9.09239C20.9665 7.9888 20.5783 7.11512 19.9744 6.19546C19.4999 5.50571 18.9392 5.13785 18.2491 4.724C17.4295 4.26417 16.8257 3.98827 15.963 3.80434C15.5748 3.71238 15.1435 3.75836 14.7984 3.66639C14.5396 3.62041 14.3239 3.57443 14.1083 3.52844C14.0856 3.52844 14.0597 3.52844 14.0332 3.52844C13.9369 3.51863 13.8449 3.51587 13.7632 3.52844C12.6849 3.52844 11.6928 3.89631 10.787 4.35614C10.3988 4.54007 9.96748 4.724 9.62241 4.86195C9.44988 4.90793 9.10482 5.09187 9.10482 5.13785C8.75975 5.2758 8.37155 5.36777 8.06962 5.59768C5.99922 7.1611 5.09342 9.69017 4.87775 12.3112C4.79149 13.2309 5.09342 14.0126 5.39535 14.7943C5.48162 15.0242 5.56789 15.2081 5.65415 15.3921C5.69729 15.53 5.82669 15.7599 5.82669 15.7599C5.78355 15.8059 5.86982 15.9439 5.91295 15.9898C6.17175 16.3117 6.43055 16.5876 6.68935 16.9095C7.59515 17.8752 8.71662 18.4729 9.79495 19.1167C11.2183 19.9904 13.0299 20.1283 14.6259 19.8064C15.0572 19.7145 15.4454 19.4846 15.8336 19.3006C16.1787 19.2087 16.5237 19.1627 16.8257 18.9787C17.1276 18.7488 17.6021 18.335 17.8609 18.1051C18.1197 17.9671 18.3785 17.8292 18.6373 17.6912C19.0686 17.3693 19.3705 16.9095 19.6725 16.4497C19.9313 15.9898 20.0607 15.576 20.2763 15.0702C20.7077 14.1505 21.0959 13.3228 21.2684 12.2652C21.4409 11.4835 21.2684 10.6558 21.1821 9.8741C21.139 9.5979 21.1821 9.36798 21.139 9.09239ZM20.1038 12.4032C19.8881 13.3688 19.4999 14.2885 18.9823 15.1162C18.5941 15.8059 18.1628 16.4957 17.6021 17.0015C17.3433 17.1854 16.9551 17.3693 16.6963 17.5073C16.3512 17.7372 16.0924 18.0131 15.7473 18.1511C15.7042 18.1511 14.7553 18.6109 14.6259 18.6109C14.4533 18.6569 14.1514 18.5649 13.9789 18.5649C13.6769 18.6109 13.3319 18.7028 13.0731 18.7948C12.728 18.8868 12.3829 18.8408 12.0379 18.7948C11.9516 18.7948 11.7791 18.7948 11.7791 18.7948C11.8653 18.7028 11.9516 18.6569 11.9947 18.5649C11.9947 18.4729 11.9947 18.335 11.9947 18.335C11.9516 18.335 11.8653 18.243 11.8653 18.243C11.7359 18.1051 11.0889 18.1051 11.0027 18.1051C10.3988 18.0131 9.96748 17.8752 9.44988 17.6452C8.97542 17.4153 8.50095 17.2314 8.11275 16.8635C7.89708 16.6796 7.50888 16.3117 7.46575 16.3117C5.91295 14.7483 5.91295 12.0813 6.25802 9.96607C6.34428 9.50624 6.60308 8.77051 6.81875 8.44863C6.86188 8.35666 7.07755 7.9888 7.20695 7.80487C7.29322 7.7129 7.46575 7.52897 7.46575 7.52897C7.50888 7.437 7.63828 7.29905 7.63828 7.29905C7.81082 7.11512 8.15588 6.74726 8.15588 6.74726C8.15588 6.74726 8.19902 6.74726 8.19902 6.70127C8.45782 6.51734 8.67348 6.33341 8.97541 6.19546C9.10481 6.10349 9.44988 5.96554 9.44988 5.91956C10.2263 5.59768 11.0027 5.36776 11.7359 4.9999C12.2535 4.76999 12.3398 4.724 12.8574 4.58605C12.9437 4.54007 13.2025 4.54007 13.2025 4.54007L12.975 4.59372C13.5418 4.51463 14.0427 4.61824 14.669 4.7237C15.2297 4.76968 15.7473 4.7237 16.2649 4.90763C16.61 5.04558 17.257 5.45942 17.4727 5.59737C18.551 6.19515 19.2843 6.97687 19.8019 8.21841C20.0607 8.86217 20.0175 9.64388 20.1038 10.3336C20.1469 11.0694 20.2763 11.7134 20.1038 12.4032Z" fill="black" stroke="black" stroke-width="0.4"/>
<path d="M9.30231 20.6811C8.61217 20.6223 8.09486 20.6802 7.45936 20.3369C7.18619 20.1891 6.90553 20.0113 6.63609 19.873C6.31202 19.7069 5.92152 19.6609 5.58709 19.4987C5.11262 19.2688 4.63816 19.0849 4.24996 18.717C4.03429 18.5331 3.64609 18.1652 3.60296 18.1652C2.05016 16.6018 2.05016 13.9348 2.39523 11.8195C2.48581 11.2647 3.28981 10.2129 2.81966 9.74537C1.89833 8.82968 1.06528 13.5503 1.01496 14.1647C0.928694 15.0843 1.23063 15.8661 1.53256 16.6478C1.61883 16.8777 1.70509 17.0616 1.79136 17.2456C1.83449 17.3835 1.96389 17.6134 1.96389 17.6134C1.92076 17.6594 2.00703 17.7974 2.05016 17.8433C2.30896 18.1652 2.56776 18.4411 2.82656 18.763C3.73236 19.7287 4.85382 20.3264 5.93216 20.9702C7.16318 21.7259 9.17204 22.1486 10.5773 21.7973C11.702 21.5162 10.8171 21.0033 10.1641 20.8258C9.88288 20.7495 9.59389 20.706 9.30231 20.6811Z" fill="black" stroke="black" stroke-width="0.4"/>
<path d="M5.09384 6.37977H5.13697C5.22324 6.37977 5.35264 6.37977 5.4389 6.33379C5.52517 6.28781 5.65457 6.19584 5.65457 6.19584C5.8271 6.14986 6.12904 5.87396 6.12904 5.87396C6.2153 5.78199 6.43097 5.64404 6.43097 5.59806C6.68977 5.41413 7.03483 5.18421 7.29363 4.9543C7.3799 4.86233 7.46616 4.77036 7.55243 4.6784C7.59556 4.63242 7.68183 4.54045 7.68183 4.54045C7.84344 4.36817 8.08901 4.1781 8.27161 3.95892C8.53242 3.86572 8.77971 3.75352 8.93269 3.71275C9.10523 3.66677 9.32089 3.62079 9.49343 3.5748C9.53656 3.5748 9.66596 3.52882 9.66596 3.52882C9.70909 3.52882 9.79536 3.48284 9.79536 3.48284C9.88162 3.39087 10.011 3.2989 10.0542 3.16095C10.0973 3.06899 10.0973 2.93104 10.0973 2.93104C10.0973 2.83907 10.0973 2.60916 10.0973 2.60916C10.0973 2.51719 9.96789 2.28727 9.96789 2.28727C9.83849 2.19531 9.79536 1.96539 9.66596 1.82744C9.57969 1.78146 9.32089 1.78146 9.32089 1.78146C9.27776 1.64351 9.19149 1.55154 9.10523 1.50556C9.02557 1.50556 8.91343 1.46785 8.89617 1.46172C8.86541 1.38846 8.81997 1.31764 8.7708 1.28515C8.7176 1.21219 8.64313 1.15915 8.50136 1.1377C8.37196 1.1377 8.19943 1.27564 8.07003 1.32163C8.0269 1.36761 7.8975 1.45958 7.8975 1.45958C7.85436 1.45958 7.81123 1.50556 7.81123 1.50556C7.72496 1.59753 7.59556 1.82744 7.59556 1.82744C7.42303 2.01138 7.03483 2.28727 6.9917 2.28727C6.38784 2.60916 5.87024 3.11497 5.35264 3.5748C5.26637 3.62079 5.13697 3.75874 5.13697 3.75874C5.13697 3.80472 5.09384 3.80472 5.09384 3.80472C4.87817 4.03463 4.79191 4.17258 4.57624 4.35652C4.57624 4.4025 4.53311 4.54045 4.53311 4.54045C4.48997 4.58643 4.44684 4.63242 4.44684 4.6784L4.40371 4.77036C3.97238 4.77036 3.92924 5.18421 4.01551 5.50609C4.10178 5.69003 4.23118 5.96593 4.36057 6.10388C4.44684 6.19584 4.66251 6.33379 4.66251 6.33379C4.74877 6.37977 4.79191 6.47174 4.92131 6.47174C4.96444 6.47174 5.09384 6.37977 5.09384 6.37977ZM5.22324 5.09255C5.30951 5.04657 5.39577 4.9546 5.39577 4.9546C5.39577 5.00059 5.48204 4.86264 5.48204 4.86264C5.65457 4.77067 5.99964 4.54076 5.99964 4.54076C5.91337 4.63272 5.74084 4.77067 5.74084 4.77067C5.5683 4.90862 5.39577 5.04657 5.22324 5.18452C5.18011 5.18452 5.13697 5.27649 5.13697 5.2305C5.18011 5.18421 5.22324 5.09255 5.22324 5.09255Z" fill="black" stroke="black" stroke-width="0.4"/>
<path d="M22.9937 4.86263C22.8212 4.54074 22.4761 4.40279 22.1742 4.17287C22.131 4.12689 22.0016 4.03492 22.0016 4.03492C21.2252 3.43713 21.0096 3.29918 20.4057 2.74738C20.2763 2.60943 20.0175 2.33353 19.9744 2.33353C19.8018 2.14959 19.6293 2.01164 19.4568 1.82771C19.4136 1.78172 19.3274 1.73574 19.3274 1.73574C19.198 1.59779 19.0686 1.45984 18.9392 1.36787C18.8529 1.36787 18.7235 1.32189 18.7235 1.32189C18.6372 1.22992 18.6372 1.13795 18.551 1.09197C18.4647 1.04598 18.3353 1 18.3353 1L18.3813 1.04292C18.3025 1.02882 18.2139 1.04169 18.1196 1.09197C18.0334 1.13795 17.8608 1.36787 17.8608 1.36787C17.5158 1.50582 17.2138 1.91967 17.1276 2.28754C17.0844 2.42549 17.0844 2.56344 17.1276 2.7014C17.1276 2.79336 17.257 2.88533 17.257 2.88533C17.3001 3.20722 17.602 3.39115 17.8608 3.5291C18.0765 3.62107 18.5078 3.85099 18.5078 3.85099C18.8529 4.0809 19.1117 4.44877 19.4568 4.67869C19.5862 4.77066 19.6724 4.90861 19.845 5.00058C19.9312 5.00058 20.1038 5.04656 20.1038 5.04656C20.2332 5.13853 20.3626 5.18451 20.492 5.27648C20.5351 5.27648 20.6214 5.32246 20.6214 5.32246C20.7076 5.36845 20.8802 5.46041 20.8802 5.46041C20.9233 5.46041 20.9664 5.46041 21.0096 5.46041L21.0527 5.5064C21.139 5.59837 21.3978 5.69033 21.3978 5.69033C21.6997 5.87427 21.9585 5.92025 22.3467 5.82828C22.433 5.82828 22.5192 5.7823 22.6055 5.73632C22.6486 5.69033 22.6918 5.55238 22.6918 5.55238C22.9937 5.50609 23.1231 5.13853 22.9937 4.86263Z" fill="black" stroke="black" stroke-width="0.4"/>
<path d="M16.7087 13.8709C16.3207 13.5236 15.8635 13.2725 15.446 12.9675C15.1044 12.7176 14.4715 12.5168 14.2343 12.1481C14.1146 11.962 14.1158 11.7183 14.0453 11.508C14.0358 10.2658 13.9757 9.01141 14.0445 7.77876C14.0571 7.55313 14.1724 7.15185 14.1112 6.93788C14.0128 6.59423 13.7017 6.65708 13.4015 6.65708C13.3152 6.65708 13.1858 6.70306 13.1858 6.70306C13.1772 6.67578 13.1588 6.65064 13.1369 6.62734L13.1858 6.65708C13.1148 6.54334 13.0064 6.48694 12.8922 6.47621C12.8882 6.47468 12.8839 6.47314 12.8839 6.47314L12.8888 6.47621C12.7269 6.46241 12.5532 6.54212 12.4526 6.70306C12.0721 7.31157 12.1268 7.95564 12.1224 8.65121C12.1196 9.10092 12.0595 9.53684 12.0598 9.98839C12.0603 10.5938 12.1078 11.2091 12.0925 11.8109C12.0891 11.9485 12.0701 12.0871 12.0592 12.2256C11.9189 12.3105 11.8116 12.4261 11.8148 12.5849C11.8211 12.9301 12.4298 13.2014 12.6432 13.3954C12.952 13.6762 13.3124 13.8881 13.6571 14.103C13.7632 14.1692 14.3979 14.431 14.3979 14.5665C14.6567 14.7504 14.9155 14.9343 15.1743 15.1183C15.2605 15.1642 15.4762 15.2562 15.4762 15.3022C15.8106 15.5698 16.2 16.1277 16.6713 16.0631C17.1236 16.0011 17.4615 15.3154 17.4287 14.8733C17.3965 14.4389 17.0054 14.1367 16.7087 13.8709Z" fill="black" stroke="black" stroke-width="0.4"/>
</svg>
